<svg width="28" height="27" viewBox="0 0 28 27" fill="none" xmlns="http://www.w3.org/2000/svg">
<path d="M14.8633 9.77979C14.0743 9.70404 13.2804 9.86721 12.5904 10.247C11.9004 10.6267 11.348 11.2045 11.0089 11.9012C10.6698 12.5979 10.5605 13.3795 10.696 14.1389C10.8315 14.8983 11.2052 15.5984 11.7659 16.1434C12.3266 16.6884 13.0468 17.0516 13.8281 17.1833C14.6094 17.315 15.4134 17.2088 16.1301 16.8792C16.8469 16.5496 17.4413 16.0127 17.832 15.342C18.2227 14.6713 18.3905 13.8996 18.3126 13.1326C18.2238 12.2728 17.8318 11.4692 17.2032 10.8582C16.5746 10.2471 15.7479 9.86615 14.8633 9.77979ZM24.1235 13.5C24.1211 13.9063 24.0903 14.3121 24.0316 14.7144L26.7483 16.7856C26.8666 16.881 26.9463 17.0139 26.9733 17.161C27.0003 17.308 26.9727 17.4596 26.8956 17.5888L24.3254 21.9112C24.2474 22.0391 24.1254 22.1362 23.9809 22.1852C23.8365 22.2343 23.6788 22.2322 23.5358 22.1793L20.8377 21.1232C20.6889 21.0657 20.5277 21.0449 20.3686 21.0627C20.2095 21.0805 20.0575 21.1365 19.9261 21.2255C19.5143 21.5011 19.0816 21.746 18.6317 21.9579C18.4903 22.0248 18.3679 22.1244 18.2755 22.2481C18.183 22.3718 18.1234 22.5156 18.1017 22.6671L17.6973 25.4644C17.6707 25.6121 17.5922 25.7463 17.4751 25.844C17.3581 25.9417 17.2097 25.9968 17.0555 26H11.9152C11.7635 25.9974 11.6172 25.9447 11.5005 25.8506C11.3837 25.7564 11.3034 25.6264 11.2728 25.4819L10.869 22.6887C10.8463 22.5356 10.7851 22.3903 10.6907 22.2658C10.5964 22.1413 10.4718 22.0413 10.3282 21.9749C9.87882 21.764 9.44758 21.5185 9.03861 21.2407C8.90766 21.1521 8.75611 21.0966 8.5976 21.0792C8.43909 21.0617 8.27861 21.0829 8.13062 21.1408L5.43309 22.1963C5.29013 22.2492 5.13255 22.2514 4.98811 22.2024C4.84366 22.1535 4.72162 22.0566 4.64348 21.9287L2.07334 17.6063C1.99607 17.4772 1.96846 17.3256 1.99542 17.1785C2.02238 17.0314 2.10216 16.8984 2.22057 16.8032L4.51668 15.0508C4.64248 14.9538 4.74134 14.8277 4.80431 14.6841C4.86727 14.5404 4.89234 14.3838 4.87723 14.2284C4.8556 13.9848 4.84238 13.7418 4.84238 13.4982C4.84238 13.2547 4.855 13.0152 4.87723 12.7769C4.89069 12.6224 4.86439 12.4671 4.80071 12.3249C4.73704 12.1828 4.63798 12.0583 4.51248 11.9626L2.21756 10.2103C2.10108 10.1145 2.02297 9.98201 1.99694 9.83591C1.9709 9.68981 1.99858 9.53946 2.07514 9.41121L4.64528 5.08879C4.72333 4.96086 4.84533 4.86382 4.98979 4.81477C5.13424 4.76572 5.29187 4.76781 5.43489 4.82068L8.13302 5.87675C8.28181 5.93434 8.44298 5.95514 8.60207 5.9373C8.76117 5.91946 8.91322 5.86354 9.04462 5.77453C9.4564 5.4989 9.8891 5.25404 10.339 5.04206C10.4804 4.97523 10.6028 4.87559 10.6952 4.75191C10.7877 4.62824 10.8473 4.48435 10.869 4.33294L11.2734 1.53563C11.3 1.3879 11.3785 1.25372 11.4956 1.15602C11.6126 1.05832 11.761 1.00317 11.9152 1H17.0555C17.2072 1.00255 17.3535 1.05526 17.4703 1.14944C17.587 1.24361 17.6673 1.37365 17.6979 1.51811L18.1017 4.31133C18.1244 4.46441 18.1856 4.60967 18.28 4.73419C18.3743 4.85872 18.4989 4.95866 18.6425 5.02512C19.0919 5.23596 19.5231 5.48149 19.9321 5.75935C20.063 5.8479 20.2146 5.9034 20.3731 5.92084C20.5316 5.93828 20.6921 5.9171 20.8401 5.85923L23.5376 4.80374C23.6806 4.75082 23.8381 4.74864 23.9826 4.79758C24.127 4.84652 24.2491 4.94344 24.3272 5.07126L26.8974 9.39369C26.9746 9.52283 27.0022 9.67444 26.9753 9.82151C26.9483 9.96859 26.8685 10.1016 26.7501 10.1968L24.454 11.9492C24.3277 12.0459 24.2282 12.1719 24.1647 12.3155C24.1012 12.4591 24.0757 12.6159 24.0905 12.7716C24.1103 13.0134 24.1235 13.2564 24.1235 13.5Z" stroke="white" stroke-width="2" stroke-linecap="round" stroke-linejoin="round"/>
</svg>
