<svg width="40" height="30" viewBox="0 0 40 30" fill="none" xmlns="http://www.w3.org/2000/svg">
<path d="M35 0H5C3.67435 0.0013536 2.40341 0.504628 1.46603 1.39939C0.528658 2.29416 0.00141806 3.50734 0 4.77273V25.2273C0.00141806 26.4927 0.528658 27.7058 1.46603 28.6006C2.40341 29.4954 3.67435 29.9986 5 30H35C36.3256 29.9986 37.5966 29.4954 38.534 28.6006C39.4713 27.7058 39.9986 26.4927 40 25.2273V4.77273C39.9986 3.50734 39.4713 2.29416 38.534 1.39939C37.5966 0.504628 36.3256 0.0013536 35 0ZM33.7339 7.8946L20.8768 17.4401C20.6261 17.6261 20.3176 17.7271 20 17.7271C19.6824 17.7271 19.3739 17.6261 19.1232 17.4401L6.26607 7.8946C6.11501 7.78571 5.98813 7.64925 5.8928 7.49315C5.79747 7.33704 5.73559 7.16441 5.71076 6.98528C5.68593 6.80615 5.69864 6.6241 5.74816 6.4497C5.79767 6.2753 5.88301 6.11203 5.9992 5.96939C6.11539 5.82674 6.26012 5.70756 6.42498 5.61877C6.58984 5.52998 6.77155 5.47334 6.95954 5.45217C7.14753 5.43099 7.33805 5.44568 7.52004 5.4954C7.70203 5.54511 7.87185 5.62885 8.01964 5.74176L20 14.6361L31.9804 5.74176C32.2799 5.52581 32.6565 5.4311 33.0287 5.47811C33.4008 5.52511 33.7386 5.71006 33.9691 5.99295C34.1995 6.27583 34.304 6.63393 34.26 6.9898C34.216 7.34566 34.027 7.67069 33.7339 7.8946Z" fill="black"/>
</svg>
